<svg
  aria-hidden="true"
  style="position: absolute; width: 0; height: 0; overflow: hidden;"
  version="1.1"
  xmlns="http://www.w3.org/2000/svg"
  xmlns:xlink="http://www.w3.org/1999/xlink"
>
<defs>
<symbol id="icon-call" viewBox="0 0 32 32">
<path
        d="M27.379 4.67c-2.965-3.027-7.063-4.67-11.248-4.67-8.894 0-16.044 7.178-15.956 15.914 0 2.768 0.785 5.449 2.093 7.87l-2.267 8.216 8.458-2.162c2.354 1.297 4.97 1.903 7.586 1.903 8.807 0 15.956-7.178 15.956-15.913 0-4.238-1.657-8.216-4.621-11.157zM16.131 29.060c-2.354 0-4.708-0.605-6.714-1.816l-0.523-0.26-5.057 1.297 1.308-4.93-0.349-0.519c-3.837-6.141-2.005-14.27 4.272-18.076s14.387-1.989 18.223 4.238c3.836 6.227 2.005 14.27-4.273 18.076-2.006 1.297-4.447 1.989-6.888 1.989zM23.804 19.46l-0.959-0.433c0 0-1.395-0.605-2.267-1.038-0.087 0-0.174-0.087-0.262-0.087-0.262 0-0.436 0.087-0.61 0.173 0 0-0.087 0.087-1.308 1.47-0.087 0.173-0.262 0.26-0.436 0.26h-0.087c-0.087 0-0.262-0.087-0.349-0.173l-0.436-0.173c-0.959-0.433-1.831-0.951-2.529-1.643-0.174-0.173-0.436-0.346-0.61-0.519-0.61-0.605-1.221-1.297-1.657-2.076l-0.087-0.173c-0.087-0.086-0.087-0.173-0.174-0.346 0-0.173 0-0.346 0.087-0.432 0 0 0.349-0.432 0.61-0.692 0.174-0.173 0.262-0.432 0.436-0.605 0.174-0.259 0.262-0.605 0.174-0.865-0.087-0.432-1.133-2.768-1.395-3.286-0.174-0.259-0.349-0.346-0.61-0.432h-0.262c-0.174 0-0.436 0-0.698 0-0.174 0-0.349 0.086-0.523 0.086l-0.087 0.086c-0.174 0.086-0.349 0.259-0.523 0.346-0.174 0.173-0.262 0.346-0.436 0.519-0.61 0.778-0.959 1.73-0.959 2.681 0 0.692 0.174 1.384 0.436 1.989l0.087 0.259c0.785 1.643 1.831 3.114 3.226 4.411l0.349 0.346c0.262 0.26 0.523 0.433 0.698 0.692 1.831 1.557 3.924 2.681 6.278 3.286 0.262 0.087 0.61 0.087 0.872 0.173 0.262 0 0.61 0 0.872 0 0.436 0 0.959-0.173 1.308-0.346 0.262-0.173 0.436-0.173 0.61-0.346l0.174-0.173c0.174-0.173 0.349-0.26 0.523-0.433s0.349-0.346 0.436-0.519c0.174-0.346 0.262-0.778 0.349-1.211 0-0.173 0-0.432 0-0.605 0 0-0.087-0.087-0.262-0.173z"
      />
</symbol>
<symbol id="icon-power01" viewBox="0 0 32 32">
<path
        d="M27.658 4.97h3.717c0.345 0 0.625-0.28 0.625-0.625v-3.72c0-0.345-0.28-0.625-0.625-0.625h-3.717c-0.345 0-0.625 0.28-0.625 0.625v1.235h-8.55v-1.235c0-0.345-0.28-0.625-0.625-0.625h-3.717c-0.345 0-0.625 0.28-0.625 0.625v1.235h-8.55v-1.235c0-0.345-0.28-0.625-0.625-0.625h-3.717c-0.345 0-0.625 0.28-0.625 0.625v3.72c0 0.345 0.28 0.625 0.625 0.625h3.717c0.345 0 0.625-0.28 0.625-0.625v-1.235h5.199c-1.831 0.83-3.481 2.049-4.826 3.591-2.109 2.418-3.328 5.477-3.469 8.674h-1.246c-0.345 0-0.625 0.28-0.625 0.625v3.72c0 0.345 0.28 0.625 0.625 0.625h3.717c0.345 0 0.625-0.28 0.625-0.625v-3.72c0-0.345-0.28-0.625-0.625-0.625h-1.22c0.288-5.89 4.621-10.905 10.395-12.033v1.003c0 0.345 0.28 0.625 0.625 0.625h3.717c0.345 0 0.625-0.28 0.625-0.625v-1.003c5.774 1.127 10.106 6.143 10.395 12.033h-1.22c-0.345 0-0.625 0.28-0.625 0.625v3.72c0 0.345 0.28 0.625 0.625 0.625h3.717c0.345 0 0.625-0.28 0.625-0.625v-3.72c0-0.345-0.28-0.625-0.625-0.625h-1.246c-0.141-3.197-1.36-6.256-3.469-8.674-1.345-1.542-2.996-2.761-4.826-3.591h5.199v1.235c0 0.345 0.28 0.625 0.625 0.625zM3.717 3.72h-2.467v-2.47h2.467v2.47zM3.717 19.095h-2.467v-2.47h2.467v2.47zM30.75 19.095h-2.467v-2.47h2.467v2.47zM17.233 3.72h-2.467v-2.47h2.467v2.47zM28.283 1.25h2.467v2.47h-2.467v-2.47z"
      />
<path
        d="M16.547 6.886c-0.11-0.199-0.32-0.324-0.547-0.324s-0.438 0.124-0.547 0.324l-2.596 4.713c-0.166 0.303-0.056 0.683 0.246 0.849s0.682 0.057 0.849-0.246l1.423-2.584v4.609c-0.868 0.268-1.5 1.077-1.5 2.031 0 1.172 0.953 2.125 2.125 2.125s2.125-0.953 2.125-2.125c0-0.954-0.632-1.764-1.5-2.031v-4.609l4.288 7.785c-1.409 1.425-2.369 3.252-2.742 5.222h-4.342c-0.373-1.97-1.334-3.797-2.742-5.222l0.716-1.301c0.166-0.302 0.056-0.682-0.246-0.849s-0.683-0.057-0.849 0.246l-0.947 1.72c-0.139 0.253-0.087 0.568 0.125 0.762 1.346 1.233 2.281 2.866 2.667 4.643h-0.582c-1.034 0-1.875 0.841-1.875 1.875 0 0.729 0.419 1.362 1.028 1.672v5.203c0 0.345 0.28 0.625 0.625 0.625s0.625-0.28 0.625-0.625v-5h7.25v5c0 0.345 0.28 0.625 0.625 0.625s0.625-0.28 0.625-0.625v-5.203c0.61-0.31 1.028-0.943 1.028-1.672 0-1.034-0.841-1.875-1.875-1.875h-0.582c0.387-1.778 1.321-3.41 2.667-4.643 0.213-0.195 0.264-0.51 0.125-0.762l-5.691-10.333zM16 17.133c-0.482 0-0.875-0.393-0.875-0.875s0.393-0.875 0.875-0.875 0.875 0.392 0.875 0.875c0 0.482-0.393 0.875-0.875 0.875zM20.653 24.5c0 0.345-0.28 0.625-0.625 0.625h-8.057c-0.345 0-0.625-0.28-0.625-0.625s0.28-0.625 0.625-0.625h8.057c0.345 0 0.625 0.28 0.625 0.625z"
      />
<path
        d="M12.289 14.508c0.165 0 0.326-0.066 0.442-0.183s0.183-0.277 0.183-0.442c0-0.165-0.067-0.325-0.183-0.442s-0.277-0.183-0.442-0.183c-0.165 0-0.326 0.067-0.442 0.183s-0.183 0.277-0.183 0.442c0 0.165 0.066 0.325 0.183 0.442s0.277 0.183 0.442 0.183z"
      />
</symbol>
<symbol id="icon-power02" viewBox="0 0 32 32">
<path
        d="M6.625 11.875c0 5.169 4.206 9.375 9.375 9.375s9.375-4.206 9.375-9.375c0-5.169-4.206-9.375-9.375-9.375s-9.375 4.206-9.375 9.375zM16 3.75c4.48 0 8.125 3.645 8.125 8.125s-3.645 8.125-8.125 8.125c-4.48 0-8.125-3.645-8.125-8.125s3.645-8.125 8.125-8.125z"
      />
<path
        d="M10.212 10.761l2.423 2.387-0.557 3.355c-0.039 0.234 0.058 0.469 0.249 0.608s0.445 0.158 0.655 0.049l3.018-1.567 3.018 1.567c0.209 0.108 0.462 0.091 0.655-0.049 0.192-0.139 0.288-0.375 0.249-0.608l-0.557-3.355 2.423-2.387c0.169-0.166 0.229-0.413 0.156-0.638s-0.267-0.389-0.501-0.425l-3.362-0.506-1.521-3.042c-0.106-0.212-0.322-0.345-0.559-0.345s-0.453 0.134-0.559 0.345l-1.521 3.042-3.362 0.506c-0.234 0.035-0.428 0.2-0.501 0.425s-0.013 0.472 0.156 0.638zM14.427 10.379c0.201-0.030 0.375-0.156 0.466-0.338l1.107-2.215 1.107 2.215c0.091 0.182 0.265 0.308 0.466 0.338l2.447 0.368-1.763 1.737c-0.145 0.143-0.211 0.347-0.178 0.548l0.406 2.442-2.197-1.141c-0.090-0.047-0.189-0.070-0.288-0.070s-0.198 0.023-0.288 0.070l-2.197 1.141 0.406-2.442c0.033-0.201-0.033-0.405-0.178-0.548l-1.763-1.737 2.447-0.368z"
      />
<path
        d="M16.625 0.625c0 0.345-0.28 0.625-0.625 0.625s-0.625-0.28-0.625-0.625 0.28-0.625 0.625-0.625c0.345 0 0.625 0.28 0.625 0.625z"
      />
<path
        d="M13.055 0.368c-5.258 1.342-8.929 6.074-8.929 11.507 0 3.374 1.419 6.554 3.909 8.805l-3.765 6.636c-0.121 0.214-0.106 0.478 0.039 0.677s0.392 0.294 0.632 0.244l4.276-0.888 1.503 4.235c0.082 0.23 0.29 0.392 0.534 0.414s0.477-0.101 0.598-0.314l4.149-7.295 4.149 7.295c0.112 0.197 0.32 0.316 0.543 0.316 0.018 0 0.037-0.001 0.055-0.002 0.244-0.022 0.452-0.183 0.534-0.414l1.503-4.235 4.276 0.888c0.24 0.050 0.488-0.046 0.632-0.244s0.16-0.463 0.039-0.677l-3.765-6.636c2.49-2.252 3.909-5.431 3.909-8.805 0-5.433-3.672-10.165-8.929-11.507-0.335-0.085-0.675 0.116-0.76 0.451s0.116 0.675 0.451 0.76c4.704 1.201 7.989 5.434 7.989 10.295 0 5.916-4.805 10.625-10.625 10.625-5.824 0-10.625-4.713-10.625-10.625 0-4.861 3.285-9.095 7.989-10.295 0.335-0.085 0.536-0.426 0.451-0.76s-0.426-0.536-0.76-0.451zM11.44 29.878l-1.228-3.461c-0.104-0.294-0.41-0.467-0.716-0.403l-3.458 0.718 2.98-5.252c1.738 1.263 3.795 2.033 5.934 2.223l-3.512 6.175zM22.505 26.014c-0.306-0.063-0.612 0.109-0.716 0.403l-1.228 3.461-3.512-6.175c2.14-0.19 4.197-0.96 5.935-2.223l2.98 5.252-3.458-0.718z"
      />
</symbol>
<symbol id="icon-power03" viewBox="0 0 32 32">
<path
        d="M26.010 27.606c0-0.359-0.291-0.65-0.65-0.65s-0.65 0.291-0.65 0.65c0 0.359 0.291 0.65 0.65 0.65s0.65-0.291 0.65-0.65z"
      />
<path
        d="M22.266 27.606c0-0.359-0.291-0.65-0.65-0.65s-0.65 0.291-0.65 0.65c0 0.359 0.291 0.65 0.65 0.65s0.65-0.291 0.65-0.65z"
      />
<path
        d="M18.522 27.606c0-0.359-0.291-0.65-0.65-0.65s-0.65 0.291-0.65 0.65c0 0.359 0.291 0.65 0.65 0.65s0.65-0.291 0.65-0.65z"
      />
<path
        d="M14.128 26.957c-0.359 0-0.65 0.291-0.65 0.65s0.291 0.65 0.65 0.65c0.359 0 0.65-0.291 0.65-0.65s-0.291-0.65-0.65-0.65z"
      />
<path
        d="M9.734 27.606c0 0.359 0.291 0.65 0.65 0.65s0.65-0.291 0.65-0.65c0-0.359-0.291-0.65-0.65-0.65s-0.65 0.291-0.65 0.65z"
      />
<path
        d="M5.99 27.606c0 0.359 0.291 0.65 0.65 0.65s0.65-0.291 0.65-0.65c0-0.359-0.291-0.65-0.65-0.65s-0.65 0.291-0.65 0.65z"
      />
<path
        d="M17.173 14.141v0c-0.282-0.148-0.477-0.476-0.515-0.861h1.215c0.222 0 0.429-0.114 0.548-0.302l2.496-3.931c0.135-0.212 0.135-0.484 0-0.697l-2.496-3.931c-0.119-0.188-0.326-0.301-0.548-0.301h-1.222v-3.469c0-0.359-0.291-0.65-0.65-0.65s-0.65 0.291-0.65 0.65v3.469h-1.222c-0.222 0-0.429 0.114-0.548 0.301v0l-2.496 3.931c0 0 0 0 0 0-0.135 0.212-0.135 0.484 0 0.697 0 0 0 0 0 0l2.496 3.931c0.119 0.188 0.326 0.302 0.548 0.302h1.227c0.044 0.873 0.499 1.636 1.213 2.011 0.404 0.212 0.654 0.627 0.654 1.083 0 0.674-0.548 1.222-1.222 1.222s-1.222-0.548-1.222-1.222c0-0.359-0.291-0.65-0.65-0.65s-0.65 0.291-0.65 0.65c0 0.825 0.399 1.559 1.014 2.019l-8.032 4.819h-5.81c-0.359 0-0.65 0.291-0.65 0.65s0.291 0.65 0.65 0.65h1.222v6.188h-1.222c-0.359 0-0.65 0.291-0.65 0.65s0.291 0.65 0.65 0.65h12.542c0.359 0 0.65-0.291 0.65-0.65s-0.291-0.65-0.65-0.65h-10.021v-6.188h25.657v6.188h-10.021c-0.359 0-0.65 0.291-0.65 0.65s0.291 0.65 0.65 0.65h12.542c0.359 0 0.65-0.291 0.65-0.65s-0.291-0.65-0.65-0.65h-1.222v-6.188h1.222c0.359 0 0.65-0.291 0.65-0.65s-0.291-0.65-0.65-0.65h-5.81l-8.032-4.819c0.615-0.46 1.014-1.194 1.014-2.019 0-0.94-0.517-1.795-1.349-2.233zM17.515 11.981h-3.030l-2.083-3.281 2.083-3.281h3.030l2.083 3.281-2.083 3.281zM16 19.004l7.014 4.209h-14.028l7.014-4.209z"
      />
<path
        d="M16 32c0.359 0 0.65-0.291 0.65-0.65s-0.291-0.65-0.65-0.65-0.65 0.291-0.65 0.65c0 0.359 0.291 0.65 0.65 0.65z"
      />
</symbol>
<symbol id="icon-power04" viewBox="0 0 32 32">
<path
        d="M29.768 9.353h-0.475v-1.205c0-1.145-0.932-2.077-2.078-2.077s-2.078 0.932-2.078 2.077v1.205h-1.023v-1.205c0-1.145-0.933-2.077-2.080-2.077-1.146 0-2.078 0.932-2.078 2.077v1.205h-1.116v-5.238h5.313c1.075 0 1.95-0.874 1.95-1.948s-0.875-1.949-1.95-1.949h-5.699c-0.346 0-0.625 0.28-0.625 0.625s0.28 0.625 0.625 0.625h5.699c0.386 0 0.7 0.314 0.7 0.699s-0.314 0.697-0.7 0.697h-16.309c-0.386 0-0.7-0.313-0.7-0.697s0.314-0.699 0.7-0.699h5.219c0.345 0 0.625-0.28 0.625-0.625s-0.28-0.625-0.625-0.625h-5.219c-1.075 0-1.95 0.874-1.95 1.949s0.875 1.948 1.95 1.948h5.313v5.238h-1.115v-1.205c0-1.145-0.933-2.077-2.080-2.077s-2.078 0.932-2.078 2.077v1.205h-1.022v-1.205c0-1.145-0.933-2.077-2.080-2.077s-2.078 0.932-2.078 2.077v1.205h-0.475c-1.23 0-2.23 1-2.23 2.229s1 2.229 2.23 2.229h2.657l8.27 8.254v9.091c0 0.345 0.28 0.625 0.625 0.625h4.433c0.345 0 0.625-0.28 0.625-0.625v-9.091l8.27-8.254h2.657c1.231 0 2.232-1 2.232-2.229s-1.001-2.229-2.232-2.229zM26.387 8.148c0-0.456 0.371-0.826 0.828-0.826s0.828 0.371 0.828 0.826v1.205h-1.655v-1.205zM21.208 8.148c0-0.456 0.371-0.826 0.827-0.826 0.458 0 0.829 0.371 0.829 0.826v1.205h-1.657v-1.205zM9.136 8.148c0-0.456 0.371-0.826 0.827-0.826 0.457 0 0.829 0.371 0.829 0.826v1.205h-1.657v-1.205zM3.956 8.148c0-0.456 0.371-0.826 0.827-0.826 0.457 0 0.829 0.371 0.829 0.826v1.205h-1.657v-1.205zM14.408 4.116h3.182v5.238h-3.182v-5.238zM13.158 16.469l-2.662-2.658h2.662v2.658zM6.658 13.811h2.069l4.431 4.424v2.063l-6.5-6.487zM17.59 30.531h-3.182v-16.72h3.182v16.72zM18.841 20.298v-2.063l4.433-4.425h2.067l-6.5 6.487zM18.841 16.469v-2.658h2.663l-2.663 2.658zM29.768 12.561h-27.538c-0.54 0-0.98-0.439-0.98-0.979s0.44-0.978 0.98-0.978h27.538c0.541 0 0.982 0.439 0.982 0.978s-0.44 0.979-0.981 0.979z"
      />
<path
        d="M15.999 1.464h-0.010c-0.342 0-0.62-0.278-0.62-0.62s0.278-0.62 0.62-0.62h0.010c0.343 0 0.62 0.277 0.62 0.62s-0.277 0.62-0.62 0.62z"
      />
</symbol>
<symbol id="icon-factory01" viewBox="0 0 32 32">
<path
        d="M30.227 3.253c-0.112-0.193-0.318-0.311-0.541-0.311h-3.011l-1.51-2.626c-0.111-0.194-0.318-0.313-0.542-0.313h-3.376c-0.223 0-0.43 0.119-0.541 0.313l-1.388 2.404-1.091-0.573c0.013-0.088 0.020-0.177 0.020-0.269 0-1.034-0.841-1.875-1.875-1.875s-1.875 0.841-1.875 1.875c0 1.034 0.841 1.875 1.875 1.875 0.491 0 0.939-0.19 1.273-0.5l1.465 0.77 1.597 2.733c0.112 0.192 0.317 0.31 0.54 0.31h3.008l1.322 2.348-1.258 1.894c-0.144-0.036-0.294-0.055-0.449-0.055-1.034 0-1.875 0.841-1.875 1.875s0.841 1.875 1.875 1.875c0.284 0 0.559-0.063 0.808-0.183l1.249 1.249c-0.119 0.249-0.183 0.524-0.183 0.808 0 1.034 0.841 1.875 1.875 1.875s1.875-0.841 1.875-1.875c0-1.034-0.841-1.875-1.875-1.875-0.285 0-0.559 0.063-0.808 0.183l-1.249-1.249c0.119-0.249 0.183-0.524 0.183-0.808 0-0.425-0.142-0.818-0.382-1.132l1.281-1.93h3.041c0.224 0 0.432-0.12 0.543-0.315l1.688-2.96c0.11-0.193 0.109-0.431-0.002-0.623l-1.689-2.911zM16.372 2.502c-0.345 0-0.625-0.28-0.625-0.625s0.28-0.625 0.625-0.625c0.345 0 0.625 0.28 0.625 0.625s-0.28 0.625-0.625 0.625zM20.282 3.549l1.326-2.297h2.654l1.327 2.308-1.323 2.253h-2.66l-1.324-2.265zM23.246 13.126c0-0.345 0.28-0.625 0.625-0.625s0.625 0.28 0.625 0.625c0 0.345-0.28 0.625-0.625 0.625s-0.625-0.28-0.625-0.625zM28.246 16.875c0 0.345-0.28 0.625-0.625 0.625s-0.625-0.28-0.625-0.625c0-0.345 0.28-0.625 0.625-0.625s0.625 0.28 0.625 0.625zM29.324 8.814h-2.648l-1.332-2.366 1.325-2.258h2.659l1.328 2.292-1.331 2.333z"
      />
<path
        d="M12.061 12.876c-0.205 0-0.397 0.101-0.514 0.27-0.409 0.592-1.361 2.056-1.361 2.855 0 1.034 0.841 1.875 1.875 1.875s1.875-0.841 1.875-1.875c0-0.799-0.951-2.263-1.361-2.855-0.117-0.169-0.309-0.27-0.514-0.27zM12.061 16.625c-0.345 0-0.625-0.28-0.625-0.624 0.005-0.191 0.265-0.736 0.625-1.342 0.36 0.606 0.62 1.15 0.625 1.342-0 0.344-0.28 0.624-0.625 0.624z"
      />
<path
        d="M12.061 31.997c0.345 0 0.625-0.28 0.625-0.625s-0.28-0.625-0.625-0.625-0.625 0.28-0.625 0.625c0 0.345 0.28 0.625 0.625 0.625z"
      />
<path
        d="M16.622 14.596v-5.47h0.625c0.345 0 0.625-0.28 0.625-0.625v-2.5c0-0.345-0.28-0.625-0.625-0.625h-10.373c-0.345 0-0.625 0.28-0.625 0.625v2.5c0 0.345 0.28 0.625 0.625 0.625h0.625v5.47l-7.202 13.72c-0.194 0.361-0.297 0.77-0.297 1.182 0 1.378 1.121 2.5 2.5 2.5h6.749c0.345 0 0.625-0.28 0.625-0.625s-0.28-0.625-0.625-0.625h-6.749c-0.689 0-1.25-0.561-1.25-1.25 0-0.21 0.050-0.409 0.149-0.592 0.001-0.002 3.822-7.282 3.822-7.282h13.679c0 0 3.821 7.28 3.822 7.282 0.099 0.183 0.149 0.382 0.149 0.592 0 0.689-0.561 1.25-1.25 1.25h-6.749c-0.345 0-0.625 0.28-0.625 0.625s0.28 0.625 0.625 0.625h6.749c1.378 0 2.5-1.121 2.5-2.5 0-0.412-0.103-0.82-0.297-1.182l-7.202-13.72zM7.499 6.627h9.123v1.25h-9.123v-1.25zM5.877 20.374l2.8-5.334c0.047-0.090 0.072-0.189 0.072-0.29v-5.624h6.624v5.624c0 0.101 0.025 0.201 0.072 0.29l2.8 5.334h-12.367z"
      />
</symbol>
<symbol id="icon-factory02" viewBox="0 0 32 32">
<path
        d="M30.394 25.928c0.052 0.32-0.165 0.621-0.485 0.673s-0.621-0.165-0.672-0.485 0.165-0.621 0.485-0.672c0.32-0.052 0.621 0.165 0.672 0.485z"
      />
<path
        d="M16.325 7.121v0l5.636 3.75c0.215 0.143 0.311 0.41 0.236 0.658s-0.303 0.417-0.561 0.417h-11.271c-0.258 0-0.486-0.169-0.561-0.417s0.021-0.515 0.236-0.658v0l5.636-3.75c0.197-0.131 0.453-0.131 0.65 0zM12.41 10.702l-0.107 0.071h7.392l-3.696-2.459-3.59 2.389z"
      />
<path
        d="M31.721 10.335l-15.375-10.23c-0.21-0.14-0.483-0.14-0.692 0l-15.375 10.23c-0.174 0.116-0.279 0.311-0.279 0.52v3.231c0 0.23 0.127 0.442 0.33 0.551s0.45 0.097 0.641-0.031l0.581-0.387v17.155c0 0.345 0.28 0.625 0.625 0.625h27.645c0.345 0 0.625-0.28 0.625-0.625v-2.5c0-0.345-0.28-0.625-0.625-0.625s-0.625 0.28-0.625 0.625v1.875h-1.875v-13.197c0.345 0 0.625-0.28 0.625-0.625v-2.5c0-0.345-0.28-0.625-0.625-0.625h-22.645c-0.345 0-0.625 0.28-0.625 0.625v2.5c0 0.345 0.28 0.625 0.625 0.625v13.197h-1.875v-17.362l13.197-8.781 13.197 8.781v9.819c0 0.345 0.28 0.625 0.625 0.625s0.625-0.28 0.625-0.625v-8.987l0.581 0.387c0.105 0.070 0.225 0.105 0.346 0.105 0.101 0 0.203-0.025 0.295-0.074 0.203-0.109 0.33-0.321 0.33-0.551v-3.231c0-0.209-0.105-0.404-0.279-0.52zM15.375 21.288h1.25v1.25h-1.25v-1.25zM14.75 23.788h2.5c0.345 0 0.625-0.28 0.625-0.625v-1.875h1.25v4.106h-6.25v-4.106h1.25v1.875c0 0.345 0.28 0.625 0.625 0.625zM22.875 30.75h-6.25v-4.106h1.25v1.875c0 0.345 0.28 0.625 0.625 0.625h2.5c0.345 0 0.625-0.28 0.625-0.625v-1.875h1.25v4.106zM19.125 26.644h1.25v1.25h-1.25v-1.25zM11.625 26.644h1.25v1.25h-1.25v-1.25zM11 29.144h2.5c0.345 0 0.625-0.28 0.625-0.625v-1.875h1.25v4.106h-6.25v-4.106h1.25v1.875c0 0.345 0.28 0.625 0.625 0.625zM5.303 15.053h21.395v1.25h-21.395v-1.25zM5.928 17.553h20.145v13.197h-1.947v-4.731c0-0.345-0.28-0.625-0.625-0.625h-3.125v-4.731c0-0.345-0.28-0.625-0.625-0.625h-7.5c-0.345 0-0.625 0.28-0.625 0.625v4.731h-3.125c-0.345 0-0.625 0.28-0.625 0.625v4.731h-1.947v-13.197zM30.75 12.92l-14.404-9.584c-0.105-0.070-0.226-0.105-0.346-0.105s-0.241 0.035-0.346 0.105l-14.404 9.584v-1.73l14.75-9.814 14.75 9.814v1.73z"
      />
</symbol>
<symbol id="icon-factory03" viewBox="0 0 32 32">
<path
        d="M9.826 19.686v0c0.33 0.305 0.686 0.59 1.059 0.845 1.509 1.032 3.278 1.578 5.115 1.578 2.299 0 4.491-0.86 6.171-2.422 0.243-0.226 0.623-0.212 0.849 0.031s0.212 0.623-0.031 0.849c-1.903 1.769-4.385 2.743-6.989 2.743-2.081 0-4.084-0.618-5.793-1.787-0.422-0.288-0.824-0.61-1.197-0.955-0.243-0.225-0.258-0.605-0.032-0.849s0.605-0.258 0.849-0.032z"
      />
<path
        d="M22.171 6.382v0c-1.68-1.562-3.872-2.422-6.171-2.422s-4.491 0.86-6.172 2.422c-0.243 0.226-0.623 0.212-0.849-0.031s-0.212-0.623 0.031-0.849c1.903-1.769 4.386-2.743 6.989-2.743s5.086 0.974 6.989 2.743c0.243 0.226 0.257 0.606 0.031 0.849-0.118 0.127-0.279 0.192-0.44 0.192-0.146 0-0.293-0.053-0.409-0.161z"
      />
<path
        d="M27.062 19.406l-0.010 0.017 4.779 4.779c0.351 0.351 0.12 0.977-0.369 1.022l-5.456 0.511-0.002 0.021-0.509 5.435c-0.046 0.494-0.675 0.716-1.022 0.369l-6.001-6-0.014 0.003c-1.619 0.314-3.297 0.314-4.916-0.001l-0.014-0.003-6.002 6.001c-0.352 0.352-0.976 0.121-1.022-0.369l-0.511-5.456-0.021-0.002-5.435-0.509c-0.494-0.046-0.716-0.675-0.369-1.022l4.778-4.779-0.010-0.017c-0.215-0.373-0.412-0.758-0.589-1.154l-0.007-0.015h-0.426c-1.061 0-1.924-0.863-1.924-1.924v-6.558c0-1.061 0.863-1.924 1.924-1.924h0.426l0.007-0.015c0.635-1.419 1.516-2.698 2.625-3.807 2.412-2.411 5.617-3.738 9.026-3.738s6.614 1.328 9.025 3.738c1.109 1.109 1.99 2.388 2.625 3.807l0.007 0.015h0.427c1.061 0 1.924 0.863 1.924 1.924v0.599c0 0.332-0.269 0.6-0.6 0.6s-0.6-0.269-0.6-0.6v-0.599c0-0.399-0.324-0.723-0.723-0.723h-24.169c-0.399 0-0.723 0.324-0.723 0.723v6.558c0 0.399 0.324 0.723 0.723 0.723h24.169c0.399 0 0.723-0.324 0.723-0.723v-0.449c0-0.332 0.269-0.6 0.6-0.6s0.6 0.269 0.6 0.6v0.449c0 1.061-0.863 1.924-1.924 1.924h-0.427l-0.007 0.015c-0.177 0.396-0.373 0.78-0.588 1.153zM26.287 7.831h0.042l-0.019-0.038c-0.55-1.082-1.265-2.066-2.135-2.936-2.184-2.184-5.088-3.387-8.176-3.387s-5.992 1.203-8.177 3.387v0c-0.869 0.869-1.585 1.854-2.134 2.935l-0.019 0.038h20.618zM7.576 29.753l0.005 0.055 4.593-4.593-0.041-0.013c-1.176-0.373-2.298-0.918-3.332-1.626-1.24-0.848-2.309-1.895-3.172-3.095l-0.018-0.025-0.021 0.022-3.67 3.67 4.68 0.438c0.287 0.027 0.515 0.254 0.542 0.542l0.433 4.625zM13.457 24.317v0c1.664 0.373 3.413 0.374 5.077 0.002 3.029-0.677 5.574-2.555 7.257-5.131l0-0c0.186-0.296 0.359-0.6 0.518-0.913l0.019-0.038h-20.66l0.019 0.038c0.159 0.313 0.332 0.617 0.518 0.912l0 0.001c0 0.001 0.001 0.001 0.001 0.002s0.002 0.002 0.002 0.003l0.001 0.002c0 0 0 0 0 0 1.634 2.589 4.274 4.456 7.246 5.122zM24.38 29.769l0.039 0.039 0.005-0.055 0.433-4.625c0.027-0.287 0.254-0.515 0.542-0.542l4.68-0.438-0.039-0.039-3.654-3.654-0.018 0.025c-1.595 2.215-3.897 3.899-6.501 4.724l-0.041 0.013 4.553 4.552z"
      />
<path
        d="M9.912 15.358v-4.648c0-0.332 0.269-0.6 0.6-0.6s0.6 0.269 0.6 0.6v4.648c0 0.332-0.269 0.6-0.6 0.6s-0.6-0.269-0.6-0.6z"
      />
<path
        d="M12.675 14.224v0c-0.246 0.223-0.264 0.602-0.042 0.848 0.51 0.563 1.263 0.886 2.065 0.886 0.991 0 1.82-0.634 1.975-1.502 0.058-0.327 0.014-0.705-0.193-1.055s-0.576-0.674-1.171-0.894v0c-0.564-0.208-1.089-0.434-1.259-0.508l-0.003-0.002-0.003-0.002c-0.114-0.096-0.11-0.227-0.102-0.281 0 0 0-0 0-0l0.026 0.004c0.011-0.073 0.065-0.253 0.338-0.335l-1.631 2.841zM12.675 14.224c0.246-0.223 0.625-0.204 0.848 0.042 0.28 0.309 0.719 0.492 1.175 0.492 0.434 0 0.747-0.255 0.793-0.512 0.031-0.176-0.087-0.316-0.222-0.416-0.136-0.101-0.299-0.167-0.375-0.195v0c-0.709-0.262-1.34-0.542-1.387-0.562l-0.002-0.001c0 0 0 0 0 0-0.029-0.013-0.057-0.028-0.083-0.045-0.497-0.324-0.752-0.891-0.668-1.481 0.090-0.628 0.548-1.14 1.198-1.336 0.639-0.193 1.222-0.072 1.652 0.102s0.704 0.401 0.725 0.419v0M12.675 14.224l3.654-3.496M16.329 10.728c0.254 0.213 0.287 0.592 0.073 0.846l-0.073-0.846z"
      />
<path
        d="M20.415 15.958c-1.612 0-2.924-1.312-2.924-2.924s1.312-2.924 2.924-2.924c1.612 0 2.924 1.312 2.924 2.924s-1.312 2.924-2.924 2.924zM20.415 14.758c0.95 0 1.723-0.773 1.723-1.723s-0.773-1.723-1.723-1.723-1.723 0.773-1.723 1.723c0 0.95 0.773 1.723 1.723 1.723z"
      />
<path
        d="M29.962 12.804l0 0c0.126 0.301-0.023 0.659-0.325 0.784s-0.659-0.023-0.784-0.325c-0.125-0.302 0.023-0.659 0.325-0.784v0c0.302-0.125 0.66 0.022 0.784 0.325zM29.986 12.795c-0.13-0.316-0.503-0.469-0.818-0.339l0.818 0.339z"
      />
</symbol>
<symbol id="icon-factory04" viewBox="0 0 32 32">
<path
        d="M26.016 8.287l-0.020 0.020 0.022 0.018c4.051 3.305 5.81 8.635 4.477 13.699-1.866 7.089-9.168 11.407-16.257 9.541-7.081-1.863-11.397-9.098-9.548-16.232l0.965 0.254c-0.476 2.079-0.474 4.21 0.059 6.236l0 0c1.766 6.529 8.509 10.436 15.039 8.67s10.436-8.509 8.67-15.039c-1.766-6.529-8.509-10.436-15.039-8.67l-0.019 0.005v6.001c0 0.894-0.683 1.576-1.576 1.576h-2.95l-1.856 2.493-1.856-2.493h-3.484c-0.894 0-1.576-0.683-1.576-1.576v-6.943c0-0.894 0.683-1.576 1.576-1.576h10.147c0.842 0 1.524 0.631 1.576 1.418l0.002 0.028 0.028-0.005c0.141-0.024 0.292-0.057 0.448-0.092 0.022-0.005 0.045-0.010 0.068-0.015 0.18-0.040 0.366-0.080 0.552-0.107l0.022-0.003v-1.912l-2.136-0.534v-1.475c0-0.894 0.683-1.576 1.576-1.576h5.341c0.893 0 1.576 0.683 1.576 1.576v1.475l-2.136 0.534v1.911l0.022 0.003c1.972 0.32 3.838 1.066 5.437 2.185l0.018 0.012 0.015-0.015 1.3-1.3-0.018-0.018-0.676-0.676 0.711-0.711 2.1 2.1-0.711 0.711-0.694-0.694-1.193 1.193zM14.366 2.217v0.020l1.681 0.433 3.104-0.001 1.675-0.432v-0.661c0-0.166-0.055-0.307-0.154-0.405s-0.239-0.154-0.405-0.154h-5.341c-0.166 0-0.306 0.055-0.405 0.154s-0.154 0.239-0.154 0.405v0.641zM7.962 15.103l0.021 0.027 0.021-0.027 1.327-1.752h3.459c0.166 0 0.306-0.055 0.405-0.154s0.154-0.239 0.154-0.405v-6.943c0-0.166-0.055-0.307-0.154-0.405s-0.239-0.154-0.405-0.154h-10.147c-0.166 0-0.307 0.055-0.405 0.154s-0.154 0.239-0.154 0.405v6.943c0 0.166 0.055 0.307 0.154 0.405s0.239 0.154 0.405 0.154h3.993l1.327 1.752zM16.502 5.368v0.030l0.030-0.004c0.372-0.053 0.69-0.053 1.064-0.053s0.693 0 1.064 0.053l0.030 0.004v-1.711h-2.188v1.681z"
      />
<path
        d="M10.297 25.734l0.996-0.997 0.711 0.711-1.017 1.016 0.021 0.018c1.713 1.445 3.802 2.249 5.997 2.356l0.027 0.001v-1.603h1.016v1.497l0.027-0.001c2.302-0.107 4.551-1.017 6.265-2.57l0.020-0.018-0.019-0.019-1.264-1.263 0.711-0.711 1.283 1.283 0.018-0.020c1.553-1.714 2.463-3.962 2.57-6.265l0.001-0.027h-1.55v-1.016h1.603l-0.001-0.027c-0.107-2.999-1.607-5.729-3.962-7.55l-0.018-0.014-0.959 0.959-0.711-0.711 0.806-0.806-0.028-0.017c-1.393-0.857-3.052-1.339-4.711-1.446l-0.027-0.002v1.604h-1.016v-2.619h0.508c2.13 0 4.207 0.639 6.019 1.704l0.051 0.051-0 0 0.005 0.003c3.197 2.078 5.115 5.648 5.115 9.431 0 6.181-5.008 11.189-11.189 11.189s-11.189-5.008-11.189-11.189v-0.508h3.099v1.016h-2.138l0.002 0.027c0.16 2.463 1.178 4.765 2.891 6.532l0.018 0.019 0.019-0.019z"
      />
<path
        d="M15.139 22.964h0.016l0.007-0.014 1.709-3.471-0.038-0.032-3.002 2.144v1.374h1.308zM15.764 23.981h-2.949v-2.898l4.297-3.077 1.093 1.093-2.441 4.882z"
      />
<path d="M3.736 11.215h1.016v1.016h-1.016v-1.016z" />
<path d="M3.736 6.409h1.016v3.687h-1.016v-3.687z" />
<path d="M6.407 7.477h5.289v1.016h-5.289v-1.016z" />
<path d="M6.407 9.613h5.289v1.016h-5.289v-1.016z" />
</symbol>
<symbol id="icon-step1" viewBox="0 0 32 32">
<path
        d="M26.157 3.104l0.002 0.037h3.712c0.861 0 1.561 0.699 1.561 1.559v19.64c0 0.86-0.7 1.559-1.561 1.559h-8.162v2.392h3.046c1.022 0 1.854 0.832 1.854 1.854v1.266c0 0.325-0.263 0.588-0.588 0.588h-20.041c-0.325 0-0.588-0.263-0.588-0.588v-1.266c0-1.022 0.832-1.854 1.854-1.854h3.044v-2.392h-8.162c-0.86 0-1.559-0.699-1.559-1.559v-19.64c0-0.86 0.699-1.559 1.559-1.559h3.714l0.002-0.037c0.068-1.723 1.491-3.104 3.23-3.104h13.852c1.741 0 3.164 1.381 3.232 3.104zM25.394 30.825h0.039v-0.678c0-0.374-0.304-0.679-0.679-0.679h-17.508c-0.374 0-0.678 0.304-0.678 0.679v0.678h18.826zM20.494 28.292h0.039v-2.392h-9.068v2.392h9.029zM1.783 23.112h-0.039v1.229c0 0.208 0.175 0.384 0.384 0.384h27.743c0.209 0 0.385-0.175 0.385-0.384v-1.229h-11.444c-0.325 0-0.588-0.263-0.588-0.588s0.263-0.588 0.588-0.588h11.444v-17.235c0-0.209-0.176-0.384-0.385-0.384h-3.71v12.769c0 1.784-1.451 3.236-3.236 3.236h-13.852c-1.783 0-3.234-1.452-3.234-3.236v-12.769h-3.712c-0.208 0-0.384 0.175-0.384 0.384v17.235h11.442c0.325 0 0.588 0.263 0.588 0.588s-0.263 0.588-0.588 0.588h-11.403zM9.073 1.175c-1.135 0-2.058 0.923-2.058 2.058v13.852c0 1.136 0.923 2.060 2.058 2.060h13.852c1.136 0 2.060-0.924 2.060-2.060v-13.852c0-1.135-0.924-2.058-2.060-2.058h-13.852z"
      />
<path
        d="M15.696 16.629v0l-5.008-3.016c-0.177-0.106-0.284-0.297-0.284-0.503v-5.898c0-0.182 0.088-0.359 0.233-0.469 0.016-0.012 0.034-0.024 0.051-0.035 0 0 0-0 0-0l5.008-3.015c0.186-0.112 0.42-0.112 0.606 0l5.008 3.016c0.174 0.105 0.285 0.3 0.285 0.503v5.898c0 0.206-0.108 0.397-0.285 0.503l-5.008 3.016c-0.184 0.111-0.423 0.111-0.606 0zM11.638 8.288l-0.059-0.035v4.525l0.019 0.011 3.814 2.296v-4.524l-0.019-0.011-3.755-2.262zM20.401 12.789l0.019-0.011v-4.525l-3.832 2.309v4.524l3.814-2.296zM16.019 4.894l-0.020-0.012-3.869 2.33 3.869 2.331 3.869-2.331-3.849-2.318z"
      />
<path
        d="M9.772 3.894h-0.039v1.44c0 0.325-0.263 0.588-0.588 0.588s-0.588-0.263-0.588-0.588v-2.028c0-0.325 0.263-0.588 0.588-0.588h2.028c0.325 0 0.588 0.263 0.588 0.588s-0.263 0.588-0.588 0.588h-1.402z"
      />
<path
        d="M22.264 3.933v-0.039h-1.44c-0.325 0-0.588-0.263-0.588-0.588s0.263-0.588 0.588-0.588h2.028c0.325 0 0.588 0.263 0.588 0.588v2.028c0 0.325-0.263 0.588-0.588 0.588s-0.588-0.263-0.588-0.588v-1.402z"
      />
<path
        d="M22.226 16.425h0.039v-1.44c0-0.325 0.263-0.588 0.588-0.588s0.588 0.263 0.588 0.588v2.028c0 0.325-0.263 0.588-0.588 0.588h-2.028c-0.325 0-0.588-0.263-0.588-0.588s0.263-0.588 0.588-0.588h1.402z"
      />
<path
        d="M9.734 16.387v0.039h1.44c0.325 0 0.588 0.263 0.588 0.588s-0.263 0.588-0.588 0.588h-2.028c-0.325 0-0.588-0.263-0.588-0.588v-2.028c0-0.325 0.263-0.588 0.588-0.588s0.588 0.263 0.588 0.588v1.402z"
      />
<path
        d="M15.411 22.524c0-0.325 0.263-0.588 0.588-0.588s0.59 0.263 0.59 0.588c0 0.325-0.262 0.588-0.586 0.588h-0.004c-0.325 0-0.588-0.263-0.588-0.588z"
      />
</symbol>
<symbol id="icon-step2" viewBox="0 0 32 32">
<path
        d="M26.511 11.906c0 0.317-0.257 0.573-0.573 0.573s-0.573-0.257-0.573-0.573 0.257-0.573 0.573-0.573c0.317 0 0.573 0.257 0.573 0.573z"
      />
<path
        d="M31.375 11.281h-2.625c-0.344 0-0.625 0.281-0.625 0.625 0 0.136 0.043 0.266 0.125 0.375v7.25h-6.25v-7h1.125c0.344 0 0.625-0.281 0.625-0.625s-0.281-0.625-0.625-0.625h-1.125v-1.281h1.875c0.345 0 0.625-0.28 0.625-0.625v-7.5c0-0.345-0.28-0.625-0.625-0.625h-1.875v-0.625c0-0.345-0.28-0.625-0.625-0.625h-3.813c-0.345 0-0.625 0.28-0.625 0.625v1h-1.875v-1c0-0.345-0.28-0.625-0.625-0.625h-3.813c-0.345 0-0.625 0.28-0.625 0.625v0.625h-1.875c-0.345 0-0.625 0.28-0.625 0.625v1.25h-1.875c-0.345 0-0.625 0.28-0.625 0.625v3.75c0 0.345 0.28 0.625 0.625 0.625h1.875v1.25c0 0.345 0.28 0.625 0.625 0.625h1.875v1.281h-9.375c-0.345 0-0.625 0.28-0.625 0.625v8.25c0 0.345 0.28 0.625 0.625 0.625h9.375v1.219h-1.875c-0.345 0-0.625 0.28-0.625 0.625v1.25h-1.875c-0.345 0-0.625 0.28-0.625 0.625v3.75c0 0.345 0.28 0.625 0.625 0.625h1.875v1.25c0 0.345 0.28 0.625 0.625 0.625h1.875v0.625c0 0.345 0.28 0.625 0.625 0.625h3.813c0.345 0 0.625-0.28 0.625-0.625v-1h1.875v1c0 0.345 0.28 0.625 0.625 0.625h3.813c0.345 0 0.625-0.28 0.625-0.625v-0.625h1.875c0.345 0 0.625-0.28 0.625-0.625v-7.5c0-0.345-0.28-0.625-0.625-0.625h-1.875v-1.219h9.375c0.345 0 0.625-0.28 0.625-0.625v-8.25c0-0.345-0.28-0.625-0.625-0.625zM23.25 27h-1.25v-1.25h1.25v1.25zM23.25 6.25h-1.25v-1.25h1.25v1.25zM23.25 8.75h-1.25v-1.25h1.25v1.25zM23.25 2.5v1.25h-1.25v-1.25h1.25zM8.75 25.75h1.25v1.25h-1.25v-1.25zM8.75 5h1.25v1.25h-1.25v-1.25zM8.75 2.5h1.25v1.25h-1.25v-1.25zM6.25 6.875v-2.5h1.25v2.5h-1.25zM8.75 8.75v-1.25h1.25v1.25h-1.25zM1.25 12.531h1.25v7h-1.25v-7zM3.75 19.531v-7h6.25v7h-6.25zM8.75 23.25h1.25v1.25h-1.25v-1.25zM6.25 27.625v-2.5h1.25v2.5h-1.25zM8.75 29.5v-1.25h1.25v1.25h-1.25zM13.812 30.75h-2.562v-29.5h2.562v29.5zM15.062 29.125v-26.25h1.875v26.25h-1.875zM20.75 30.75h-2.562v-29.5h2.562v29.5zM23.25 29.5h-1.25v-1.25h1.25v1.25zM23.25 23.25v1.25h-1.25v-1.25h1.25zM30.75 19.531h-1.25v-7h1.25v7z"
      />
</symbol>
<symbol id="icon-step3" viewBox="0 0 32 32">
<path
        d="M31.375 30.75h-13.181v-10.786l5.773-1.155c0.292-0.058 0.502-0.315 0.502-0.613v-1.885h1.885c0.345 0 0.625-0.28 0.625-0.625v-2.51c0-0.345-0.28-0.625-0.625-0.625h-1.258v-1.258c0-0.345-0.28-0.625-0.625-0.625s-0.625 0.28-0.625 0.625v1.258h-1.26v-1.258c0-0.345-0.28-0.625-0.625-0.625s-0.625 0.28-0.625 0.625v1.258h-3.143v-2.628l5.773-1.155c0.292-0.058 0.502-0.315 0.502-0.613v-1.885h1.885c0.345 0 0.625-0.28 0.625-0.625v-2.51c0-0.345-0.28-0.625-0.625-0.625h-1.258v-1.258c0-0.345-0.28-0.625-0.625-0.625s-0.625 0.28-0.625 0.625v1.258h-1.26v-1.258c0-0.345-0.28-0.625-0.625-0.625s-0.625 0.28-0.625 0.625v1.258h-3.143v-1.885c0-0.345-0.28-0.625-0.625-0.625h-3.138c-0.345 0-0.625 0.28-0.625 0.625v1.885h-3.143v-1.258c0-0.345-0.28-0.625-0.625-0.625s-0.625 0.28-0.625 0.625v1.258h-1.26v-1.258c0-0.345-0.28-0.625-0.625-0.625s-0.625 0.28-0.625 0.625v1.258h-1.258c-0.345 0-0.625 0.28-0.625 0.625v2.51c0 0.345 0.28 0.625 0.625 0.625h1.885v1.885c0 0.298 0.21 0.554 0.502 0.613l5.773 1.155v2.628h-3.143v-1.258c0-0.345-0.28-0.625-0.625-0.625s-0.625 0.28-0.625 0.625v1.258h-1.26v-1.258c0-0.345-0.28-0.625-0.625-0.625s-0.625 0.28-0.625 0.625v1.258h-1.258c-0.345 0-0.625 0.28-0.625 0.625v2.51c0 0.345 0.28 0.625 0.625 0.625h1.885v1.885c0 0.298 0.21 0.554 0.502 0.613l5.773 1.155v10.786h-13.181c-0.345 0-0.625 0.28-0.625 0.625s0.28 0.625 0.625 0.625h30.75c0.345 0 0.625-0.28 0.625-0.625s-0.28-0.625-0.625-0.625zM18.194 3.76h7.536v1.26h-7.536v-1.26zM18.194 6.27h5.026v1.373l-5.026 1.005v-2.378zM18.194 13.801h7.536v1.26h-7.536v-1.26zM18.194 16.311h5.026v1.373l-5.026 1.005v-2.378zM13.806 18.689l-5.026-1.005v-1.373h5.026v2.378zM13.806 15.061h-7.536v-1.26h7.536v1.26zM13.806 8.648l-5.026-1.005v-1.373h5.026v2.378zM13.806 5.020h-7.536v-1.26h7.536v1.26zM16.944 30.75h-1.888c0-0.431 0-28.556 0-29.5h1.888v29.5z"
      />
</symbol>
<symbol id="icon-step4" viewBox="0 0 32 32">
<path
        d="M30.377 17.979c-0.068-0.226-0.275-0.38-0.511-0.38h-0.797c-1.454-2.059-3.569-3.557-5.993-4.247-0.161-0.045-0.333-0.012-0.466 0.089s-0.211 0.258-0.211 0.425v10.667h-21.866c-0.295 0-0.533 0.239-0.533 0.533v2.133c0 0.294 0.239 0.533 0.533 0.533h0.297c-0.192 0.323-0.295 0.691-0.297 1.067-0.004 0.977 0.657 1.831 1.604 2.071s1.935-0.196 2.396-1.057c0.574 1.023 1.869 1.386 2.892 0.812s1.386-1.869 0.812-2.892h5.927c-0.192 0.323-0.295 0.691-0.297 1.067-0.004 0.977 0.657 1.831 1.604 2.071s1.935-0.196 2.396-1.057c0.574 1.023 1.869 1.386 2.892 0.812s1.386-1.869 0.812-2.892h0.83v1.067c0 0.294 0.239 0.533 0.533 0.533h1.142c0.239 0.941 1.087 1.599 2.058 1.599s1.818-0.659 2.058-1.599h3.276c0.294 0 0.533-0.239 0.533-0.533v-5.333c0-0.052-0.008-0.103-0.022-0.153l-1.6-5.333zM30.431 21.865h-2.698v-1.067h2.377l0.321 1.067zM27.731 17.599h-4.264v-3.003c1.663 0.604 3.134 1.64 4.263 3.003h0.001zM2.667 29.865c-0.589 0-1.067-0.478-1.067-1.067s0.478-1.067 1.067-1.067c0.589 0 1.067 0.478 1.067 1.067s-0.478 1.067-1.067 1.067zM4.503 27.732h0.060c-0.011 0.018-0.020 0.037-0.030 0.053-0.010-0.017-0.019-0.035-0.030-0.053zM7.467 28.799c0 0.589-0.478 1.067-1.067 1.067s-1.067-0.478-1.067-1.067c0-0.589 0.478-1.067 1.067-1.067s1.067 0.478 1.067 1.067zM16 29.865c-0.589 0-1.067-0.478-1.067-1.067s0.478-1.067 1.067-1.067c0.589 0 1.067 0.478 1.067 1.067s-0.478 1.067-1.067 1.067zM17.837 27.732h0.060c-0.011 0.018-0.020 0.037-0.030 0.053-0.010-0.017-0.019-0.035-0.030-0.053zM20.8 28.799c0 0.589-0.478 1.067-1.067 1.067s-1.067-0.478-1.067-1.067c0-0.589 0.478-1.067 1.067-1.067s1.067 0.478 1.067 1.067zM1.067 26.665v-1.067h21.333v1.067h-21.333zM26.133 29.865c-0.589 0-1.067-0.478-1.067-1.067s0.478-1.067 1.067-1.067c0.589 0 1.067 0.478 1.067 1.067s-0.478 1.067-1.067 1.067zM26.133 26.665c-0.97 0.004-1.815 0.661-2.058 1.6h-0.609v-2.667h4.579l0.754 0.754v1.912h-0.609c-0.242-0.939-1.088-1.596-2.058-1.6zM30.933 28.265h-1.067v-2.133c0-0.141-0.056-0.277-0.156-0.377l-1.067-1.067c-0.1-0.1-0.236-0.156-0.377-0.156h-4.8v-5.867h6.003l0.32 1.067h-2.59c-0.295 0-0.533 0.239-0.533 0.533v2.133c0 0.294 0.239 0.533 0.533 0.533h3.55l0.184 0.611v4.722z"
      />
<path d="M24.533 19.732h1.067v1.067h-1.067v-1.067z" />
<path d="M24.533 21.332h1.067v1.067h-1.067v-1.067z" />
<path
        d="M20.8 10.132h-6.933v-1.067c0-0.141-0.056-0.277-0.156-0.377l-1.355-1.355c0.49-0.738 0.581-1.672 0.242-2.49s-1.063-1.415-1.931-1.591v-2.187h-1.067v2.187c-0.868 0.176-1.592 0.772-1.931 1.591s-0.248 1.752 0.242 2.49l-1.355 1.355c-0.1 0.1-0.156 0.236-0.156 0.378v1.067h-5.867c-0.295 0-0.533 0.239-0.533 0.533v11.733c0 0.295 0.239 0.533 0.533 0.533h20.267c0.295 0 0.533-0.239 0.533-0.533v-11.733c0-0.295-0.239-0.533-0.533-0.533zM17.912 11.199l-7.246 7.246-7.246-7.246h9.379v1.379l-0.91 0.91 0.754 0.754 1.067-1.067c0.1-0.1 0.156-0.236 0.156-0.377v-1.6h4.046zM10.133 4.266c0.884 0 1.6 0.716 1.6 1.6s-0.716 1.6-1.6 1.6c-0.884 0-1.6-0.716-1.6-1.6s0.716-1.6 1.6-1.6zM7.467 9.286l1.198-1.198c0.889 0.592 2.047 0.592 2.936 0l1.198 1.198v0.846h-5.333v-0.846zM20.267 21.865h-19.2v-10.667h0.846l5.021 5.021v4.046h1.067v-2.979l2.29 2.29c0.208 0.208 0.546 0.208 0.754 0l2.29-2.29v2.979h1.067v-4.046l5.021-5.021h0.846v10.667z"
      />
<path d="M2.667 13.865h1.067v6.4h-1.067v-6.4z" />
<path d="M17.6 13.865h1.067v6.4h-1.067v-6.4z" />
<path d="M9.6 5.332h1.067v1.067h-1.067v-1.067z" />
</symbol>
<symbol id="icon-pad-item01" viewBox="0 0 32 32">
<path
        d="M18.797 17.669c-0.18 0.063-0.313 0.217-0.349 0.404s0.031 0.379 0.175 0.504 0.344 0.163 0.524 0.1c4.429-1.535 7.102-6.044 6.324-10.666s-4.781-8.007-9.468-8.007c-4.688 0-8.69 3.385-9.468 8.007s1.895 9.131 6.324 10.666c0.278 0.097 0.582-0.050 0.679-0.329s-0.050-0.582-0.329-0.679c-0.922-0.322-1.782-0.8-2.542-1.413v-0.581c-0.002-1.664 1.022-3.156 2.575-3.752 1.652 1.17 3.863 1.17 5.515 0 1.553 0.596 2.577 2.089 2.575 3.752v0.583c-0.759 0.612-1.617 1.090-2.537 1.412zM12.268 8.001c0-2.062 1.671-3.733 3.733-3.733s3.733 1.671 3.733 3.733c0 2.062-1.671 3.733-3.733 3.733-2.061-0.002-3.731-1.672-3.733-3.733zM19.627 11.133c1.677-1.936 1.537-4.848-0.317-6.616s-4.769-1.767-6.623 0c-1.854 1.767-1.993 4.679-0.317 6.616-1.57 0.803-2.612 2.363-2.752 4.121-3.040-3.426-2.833-8.641 0.47-11.815s8.522-3.174 11.824 0c3.303 3.174 3.51 8.389 0.47 11.815-0.14-1.759-1.184-3.319-2.756-4.121z"
      />
<path
        d="M11.415 31.791c0.326 0.241 0.761 0.274 1.12 0.086l3.47-1.803 3.469 1.804c0.36 0.187 0.795 0.154 1.122-0.086s0.49-0.644 0.421-1.043l-0.659-3.803 2.789-2.688c0.293-0.282 0.4-0.707 0.275-1.095s-0.459-0.67-0.862-0.729l-3.872-0.556-1.728-3.473c-0.179-0.364-0.551-0.593-0.956-0.591-0.404-0.001-0.774 0.227-0.954 0.589l-1.737 3.475-3.863 0.556c-0.403 0.058-0.738 0.341-0.862 0.729s-0.018 0.813 0.276 1.095l2.79 2.688-0.66 3.803c-0.070 0.399 0.093 0.804 0.421 1.043zM9.602 23.489l4.139-0.596c0.173-0.025 0.323-0.133 0.401-0.289l1.862-3.724 1.854 3.723c0.078 0.157 0.228 0.265 0.402 0.29l4.148 0.596-2.994 2.884c-0.127 0.123-0.185 0.301-0.155 0.475l0.708 4.083-3.715-1.931c-0.154-0.080-0.338-0.080-0.492 0l-3.716 1.931 0.708-4.082c0.030-0.174-0.028-0.352-0.155-0.475l-2.994-2.886z"
      />
<path
        d="M2.509 23.584l-0.521 3.012c-0.050 0.281 0.026 0.57 0.209 0.789s0.453 0.346 0.739 0.347c0.156-0 0.309-0.038 0.447-0.11l2.752-1.432 2.751 1.436c0.169 0.088 0.372 0.079 0.533-0.023s0.255-0.283 0.246-0.473c-0.008-0.19-0.117-0.362-0.286-0.45l-2.997-1.562c-0.154-0.080-0.338-0.080-0.493 0l-2.814 1.466 0.533-3.093c0.030-0.174-0.028-0.352-0.155-0.475l-2.265-2.186 3.134-0.45c0.173-0.025 0.323-0.133 0.401-0.29l1.412-2.823 1.407 2.823c0.078 0.157 0.229 0.265 0.402 0.29l3.348 0.48c0.292 0.042 0.562-0.161 0.603-0.453s-0.161-0.562-0.453-0.603l-3.072-0.44-1.374-2.758c-0.163-0.328-0.498-0.535-0.864-0.533h-0.003c-0.362-0.001-0.693 0.205-0.853 0.53l-1.381 2.761-3.063 0.439c-0.367 0.049-0.673 0.304-0.786 0.656s-0.015 0.738 0.253 0.992l2.209 2.134z"
      />
<path
        d="M31.951 20.456c-0.111-0.35-0.415-0.605-0.779-0.654l-3.066-0.44-1.378-2.761c-0.159-0.326-0.49-0.533-0.853-0.533h-0.003c-0.366-0.002-0.702 0.205-0.865 0.533l-1.374 2.758-3.072 0.44c-0.189 0.027-0.349 0.153-0.419 0.329s-0.042 0.378 0.075 0.528c0.118 0.15 0.306 0.226 0.495 0.199l3.349-0.48c0.174-0.025 0.324-0.133 0.402-0.29l1.404-2.819 1.409 2.823c0.078 0.156 0.228 0.265 0.401 0.29l3.133 0.45-2.265 2.186c-0.127 0.123-0.186 0.301-0.155 0.475l0.536 3.093-2.814-1.468c-0.154-0.080-0.338-0.080-0.493 0l-2.997 1.562c-0.169 0.088-0.278 0.259-0.286 0.45s0.086 0.371 0.246 0.473 0.364 0.111 0.533 0.023l2.752-1.433 2.752 1.436c0.326 0.169 0.719 0.139 1.015-0.078s0.443-0.584 0.379-0.945l-0.519-3.018 2.211-2.133c0.268-0.256 0.364-0.643 0.247-0.995z"
      />
<path
        d="M13.068 25.14c0.026-0 0.051-0.002 0.077-0.006l2.006-0.289c0.173-0.025 0.323-0.133 0.401-0.289l0.928-1.855c0.133-0.264 0.026-0.585-0.237-0.717s-0.585-0.026-0.717 0.237l-0.8 1.606-1.73 0.249c-0.277 0.039-0.477 0.287-0.457 0.566s0.252 0.496 0.532 0.495l-0.002 0.003z"
      />
</symbol>
<symbol id="icon-pad-item02" viewBox="0 0 32 32">
<path
        d="M19.097 26.839c-0.854 0-1.548 0.695-1.548 1.548s0.695 1.548 1.548 1.548c0.854 0 1.548-0.695 1.548-1.548s-0.695-1.548-1.548-1.548zM19.097 28.903c-0.284 0-0.516-0.231-0.516-0.516s0.232-0.516 0.516-0.516c0.284 0 0.516 0.231 0.516 0.516s-0.232 0.516-0.516 0.516z"
      />
<path
        d="M6.71 26.839c-0.854 0-1.548 0.695-1.548 1.548s0.695 1.548 1.548 1.548c0.854 0 1.548-0.695 1.548-1.548s-0.695-1.548-1.548-1.548zM6.71 28.903c-0.284 0-0.516-0.231-0.516-0.516s0.232-0.516 0.516-0.516c0.284 0 0.516 0.231 0.516 0.516s-0.232 0.516-0.516 0.516z"
      />
<path
        d="M7.742 8.258c0.854 0 1.548-0.695 1.548-1.548s-0.695-1.548-1.548-1.548c-0.854 0-1.548 0.695-1.548 1.548s0.695 1.548 1.548 1.548zM7.742 6.194c0.284 0 0.516 0.231 0.516 0.516s-0.232 0.516-0.516 0.516c-0.284 0-0.516-0.231-0.516-0.516s0.232-0.516 0.516-0.516z"
      />
<path
        d="M28.387 18.581c-0.854 0-1.548 0.695-1.548 1.548s0.695 1.548 1.548 1.548c0.854 0 1.548-0.695 1.548-1.548s-0.695-1.548-1.548-1.548zM28.387 20.645c-0.284 0-0.516-0.231-0.516-0.516s0.232-0.516 0.516-0.516c0.284 0 0.516 0.231 0.516 0.516s-0.232 0.516-0.516 0.516z"
      />
<path
        d="M28.881 16.554c0.008-0.185 0.023-0.37 0.023-0.554 0-2.353-0.642-4.639-1.848-6.643 0.528-0.929 0.815-1.989 0.815-3.063v-0.101c0-3.415-2.778-6.194-6.194-6.194-2.291 0-4.291 1.253-5.362 3.107-2.001-0.046-4.033 0.381-5.846 1.24-0.663-0.764-1.639-1.251-2.727-1.251-1.992 0-3.613 1.621-3.613 3.613 0 0.777 0.257 1.547 0.723 2.167l0.214 0.285c-1.193 1.904-1.861 4.071-1.949 6.322h-1.051c-0.569 0-1.032 0.463-1.032 1.032v10.323c-0.569 0-1.032 0.463-1.032 1.032v1.032c0 0.569 0.463 1.032 1.032 1.032h2.418c0.581 1.219 1.822 2.065 3.259 2.065s2.678-0.846 3.259-2.065h5.868c0.581 1.219 1.822 2.065 3.259 2.065s2.678-0.846 3.259-2.065h1.386c0.569 0 1.032-0.463 1.032-1.032v-1.421c0-0.126-0.015-0.252-0.046-0.376l-0.33-1.321c0.769-0.66 1.455-1.404 2.048-2.223l1.941 2.589 2.89-3.854c0.466-0.621 0.723-1.391 0.723-2.168 0-1.824-1.361-3.333-3.119-3.575zM21.677 1.032c2.846 0 5.161 2.315 5.161 5.161v0.101c0 1.151-0.392 2.284-1.103 3.189l-4.058 5.166-4.058-5.166c-0.711-0.905-1.103-2.037-1.103-3.189v-0.101c0-2.846 2.315-5.161 5.161-5.161zM7.742 4.129c1.423 0 2.581 1.158 2.581 2.581 0 0.555-0.183 1.105-0.516 1.548l-2.065 2.753-2.065-2.753c-0.333-0.443-0.516-0.993-0.516-1.548 0-1.423 1.158-2.581 2.581-2.581zM2.064 16.516h4.129v3.932l2.581-1.29 2.581 1.29v-3.932h4.129v10.323h-5.515c-0.581-1.219-1.822-2.065-3.259-2.065s-2.678 0.846-3.259 2.065h-1.386v-10.323zM7.226 16.516h3.097v2.262l-1.548-0.774-1.548 0.774v-2.262zM16.516 19.613h4.871c0.237 0 0.443 0.161 0.501 0.391l0.161 0.642h-2.436c-0.569 0-1.032 0.463-1.032 1.032v1.032c0 0.569 0.463 1.032 1.032 1.032h3.21l0.774 3.097h-1.241c-0.581-1.219-1.822-2.065-3.259-2.065-1.011 0-1.924 0.418-2.581 1.090v-6.251zM22.565 22.71h-2.952v-1.032h2.694l0.258 1.032zM1.032 28.903v-1.032h2.106c-0.024 0.169-0.041 0.341-0.041 0.516s0.017 0.347 0.041 0.516h-2.106zM6.71 30.968c-1.423 0-2.581-1.158-2.581-2.581s1.158-2.581 2.581-2.581c1.423 0 2.581 1.158 2.581 2.581s-1.158 2.581-2.581 2.581zM10.281 28.903c0.024-0.169 0.041-0.341 0.041-0.516s-0.017-0.347-0.041-0.516h5.244c-0.024 0.169-0.041 0.341-0.041 0.516s0.017 0.347 0.041 0.516h-5.244zM19.097 30.968c-1.423 0-2.581-1.158-2.581-2.581s1.158-2.581 2.581-2.581c1.423 0 2.581 1.158 2.581 2.581s-1.158 2.581-2.581 2.581zM22.668 28.903c0.024-0.169 0.041-0.341 0.041-0.516s-0.017-0.347-0.041-0.516h1.074v1.032h-1.074zM24.116 24.658l-1.226-4.905c-0.173-0.69-0.791-1.173-1.502-1.173h-4.871v-2.065c0-0.569-0.463-1.032-1.032-1.032h-11.336c0.083-1.923 0.621-3.779 1.583-5.434l2.011 2.682 2.89-3.854c0.466-0.621 0.723-1.391 0.723-2.168 0-0.531-0.118-1.034-0.325-1.489 1.512-0.7 3.128-1.066 4.813-1.087-0.228 0.646-0.359 1.337-0.359 2.060v0.101c0 1.382 0.47 2.741 1.323 3.827l4.87 6.198 4.733-6.024c0.956 1.742 1.461 3.699 1.461 5.705 0 0.186-0.014 0.374-0.023 0.561-1.737 0.262-3.074 1.759-3.074 3.568 0 0.777 0.257 1.547 0.723 2.167l0.298 0.397c-0.489 0.714-1.048 1.373-1.678 1.964zM30.452 21.677l-2.065 2.753-2.065-2.753c-0.333-0.443-0.516-0.993-0.516-1.548 0-1.423 1.158-2.581 2.581-2.581s2.581 1.158 2.581 2.581c0 0.555-0.183 1.105-0.516 1.548z"
      />
<path
        d="M21.677 10.323c2.277 0 4.129-1.852 4.129-4.129s-1.852-4.129-4.129-4.129c-2.277 0-4.129 1.852-4.129 4.129s1.852 4.129 4.129 4.129zM21.677 3.097c1.708 0 3.097 1.389 3.097 3.097s-1.389 3.097-3.097 3.097c-1.708 0-3.097-1.389-3.097-3.097s1.389-3.097 3.097-3.097z"
      />
<path d="M12.387 13.419h1.032v1.032h-1.032v-1.032z" />
<path d="M14.452 13.419h1.032v1.032h-1.032v-1.032z" />
<path d="M16.516 13.419h1.032v1.032h-1.032v-1.032z" />
</symbol>
<symbol id="icon-pad-item03" viewBox="0 0 32 32">
<path
        d="M25.325 25.533v0l0.625 0.478 1.658-1.831c0.22-0.243 0.596-0.262 0.839-0.042v0c0.243 0.22 0.262 0.596 0.042 0.839l-2.026 2.236c-0.117 0.129-0.278 0.195-0.441 0.195-0.126 0-0.253-0.040-0.361-0.122l-1.060-0.81c-0.261-0.199-0.311-0.572-0.111-0.833s0.572-0.311 0.833-0.111z"
      />
<path
        d="M31.924 22.202c-0.007-0.316-0.251-0.576-0.566-0.604-1.475-0.129-3.29-1.12-4.625-2.524-0.117-0.123-0.279-0.193-0.449-0.193-0 0-0 0-0 0-0.17 0-0.332 0.070-0.449 0.193-0.599 0.63-1.294 1.176-2.012 1.599-1.259-1.405-2.808-2.441-4.625-3.093-0.016-0.006-0.032-0.012-0.048-0.017-0.141-0.050-0.285-0.098-0.429-0.143 1.536-1.532 2.569-3.545 2.569-5.351v-0.974c0.726-0.316 1.235-1.041 1.235-1.882 0-0.874-0.55-1.622-1.322-1.916-0.319-3.094-2.499-5.696-5.494-6.556-0.088-0.421-0.463-0.739-0.91-0.739h-2.247c-0.431 0-0.794 0.296-0.899 0.695-1.473 0.393-2.819 1.231-3.827 2.397-1.024 1.183-1.661 2.661-1.822 4.204-0.773 0.294-1.323 1.042-1.323 1.916 0 0.842 0.51 1.567 1.237 1.883v0.974c0 1.804 1.033 3.818 2.569 5.351-0.14 0.044-0.28 0.090-0.417 0.139-0.027 0.008-0.053 0.017-0.079 0.028-2.033 0.733-3.73 1.947-5.059 3.623-1.278 1.612-2.187 3.603-2.701 5.918-0.183 0.827-0.32 1.867 0.244 2.569 0.551 0.686 1.537 0.774 2.334 0.774h4.056c0.343 0 0.62-0.278 0.62-0.62s-0.278-0.62-0.62-0.62h-4.056c-0.742 0-1.202-0.104-1.367-0.31-0.175-0.218-0.175-0.731 0-1.524 0.644-2.903 2.22-6.455 6.017-8.249-0.117 2.095 1.018 3.464 1.74 4.333 0.11 0.133 0.271 0.214 0.444 0.223s0.341-0.054 0.465-0.175l3.495-3.399 3.496 3.399c0.116 0.113 0.271 0.175 0.432 0.175 0.011 0 0.022-0 0.033-0.001 0.173-0.009 0.334-0.090 0.444-0.224 0.721-0.87 1.854-2.24 1.738-4.33 1.102 0.522 2.075 1.221 2.912 2.092-0.5 0.193-0.991 0.317-1.449 0.357-0.315 0.027-0.559 0.287-0.566 0.603-0.052 2.217 0.318 3.805 1.317 5.665 0.008 0.016 0.346 0.621 0.873 1.364h-10.354c-0.342 0-0.62 0.278-0.62 0.62s0.278 0.62 0.62 0.62h11.339c0.748 0.826 1.629 1.529 2.465 1.529 2.017 0 4.301-4.093 4.323-4.133 0.998-1.859 1.368-3.448 1.318-5.665zM19.937 7.161h-3.414c-0.645-1.685-0.767-3.075-0.789-5.114 2.237 0.791 3.863 2.765 4.203 5.114zM12.862 1.24h1.628c0.004 2.4 0.065 4.026 0.715 5.921h-3.055c0.649-1.895 0.709-3.521 0.713-5.921zM11.617 1.998c-0.020 2.067-0.139 3.465-0.788 5.163h-3.56c0.354-2.38 2.065-4.407 4.348-5.163zM6.732 8.402h4.148c0.037 0.030 0.072 0.033 0.102 0h9.493c0.447 0 0.81 0.363 0.81 0.81s-0.363 0.812-0.81 0.812h-13.743c-0.448 0-0.812-0.364-0.812-0.812s0.364-0.81 0.812-0.81zM7.157 12.068v-0.805h12.893v0.805c0 2.364-2.29 5.288-4.902 6.258-1.143 0.425-1.954 0.424-3.099-0.001-2.606-0.973-4.892-3.897-4.892-6.256zM9.731 22.165c-0.642-0.838-1.26-1.938-0.963-3.535 0.274-0.088 0.556-0.169 0.849-0.24 0.625 0.459 1.3 0.835 1.999 1.096 0.225 0.084 0.442 0.152 0.653 0.21l-2.539 2.469zM17.476 22.165l-2.54-2.469c0.209-0.057 0.423-0.125 0.645-0.207 0.703-0.261 1.38-0.638 2.009-1.098 0.29 0.070 0.573 0.15 0.849 0.24 0.298 1.595-0.32 2.696-0.962 3.535zM29.514 27.28c-0.733 1.369-2.451 3.479-3.23 3.479s-2.497-2.111-3.23-3.48c-0.819-1.524-1.156-2.794-1.174-4.524 0.669-0.127 1.365-0.377 2.050-0.726 0.024-0.011 0.047-0.023 0.070-0.037 0.8-0.416 1.582-0.966 2.283-1.62 1.321 1.232 2.929 2.101 4.404 2.382-0.020 1.73-0.356 3.001-1.174 4.525z"
      />
<path
        d="M9.078 29.85c0-0.328 0.266-0.594 0.594-0.594s0.596 0.266 0.596 0.594c0 0.328-0.264 0.594-0.593 0.594h-0.004c-0.328 0-0.594-0.266-0.594-0.594z"
      />
</symbol>
</defs>
</svg>
